# xmcd
#
# Track frame offsets: 
#        150
#        42838
#        91903
#        150701
#        196466
#
# Disc length: 3113 seconds
#
# Revision: 1
# Processed by: cddbd v1.5PL3 Copyright (c) Steve Scherf et al.
# Submitted via: ExactAudioCopy v0.95a4
#
DISCID=360c2705
DTITLE=Oscar Peterson - Oscar Peterson Jam Montreux '77
DYEAR=1977
DGENRE=Jazz
TTITLE0=Ali And Frazier
TTITLE1=If I Were A Bell
TTITLE2=Things Ain't What They Used To Be
TTITLE3=Just In Time
TTITLE4=Bye Bye Blues
EXTD=YEAR: 1977
EXTT0=
EXTT1=
EXTT2=
EXTT3=
EXTT4=
PLAYORDER=
